<svg style="position: absolute; width: 0; height: 0;" width="0" height="0" version="1.1" xmlns="http://www.w3.org/2000/svg" xmlns:xlink="http://www.w3.org/1999/xlink">
<symbol id="icon--minus" viewBox="0 0 1024 1024">
	<title>minus</title>
	<path class="path1" d="M128 469.333h768q17.667 0 30.167 12.5t12.5 30.167-12.5 30.167-30.167 12.5h-768q-17.667 0-30.167-12.5t-12.5-30.167 12.5-30.167 30.167-12.5z"></path>
</symbol>
<symbol id="icon--plus" viewBox="0 0 1024 1024">
	<title>plus</title>
	<path class="path1" d="M512 85.333q17.667 0 30.167 12.5t12.5 30.167v341.333h341.333q17.667 0 30.167 12.5t12.5 30.167-12.5 30.167-30.167 12.5h-341.333v341.333q0 17.667-12.5 30.167t-30.167 12.5-30.167-12.5-12.5-30.167v-341.333h-341.333q-17.667 0-30.167-12.5t-12.5-30.167 12.5-30.167 30.167-12.5h341.333v-341.333q0-17.667 12.5-30.167t30.167-12.5z"></path>
</symbol>
<symbol id="icon--angle-down" viewBox="0 0 1024 1024">
	<title>angle-down</title>
	<path class="path1" d="M891.808 312.768c13.92-13.728 36.288-13.728 50.112 0s13.888 35.904 0 49.6l-404.896 400.896c-13.824 13.728-36.192 13.728-50.112 0l-404.896-400.896c-13.824-13.728-13.824-35.904 0-49.6 13.888-13.728 36.288-13.728 50.112 0l379.84 365.632 379.808-365.632z"></path>
</symbol>
<symbol id="icon--angle-left" viewBox="0 0 1024 1024">
	<title>angle-left</title>
	<path class="path1" d="M711.232 891.808c13.728 13.92 13.728 36.288 0 50.112s-35.904 13.888-49.6 0l-400.896-404.896c-13.728-13.824-13.728-36.192 0-50.112l400.896-404.896c13.728-13.824 35.904-13.824 49.6 0 13.728 13.888 13.728 36.288 0 50.112l-365.632 379.84 365.632 379.808z"></path>
</symbol>
<symbol id="icon--angle-right" viewBox="0 0 1024 1024">
	<title>angle-right</title>
	<path class="path1" d="M678.4 512l-365.632-379.904c-13.728-13.824-13.728-36.192 0-50.112 13.728-13.824 35.904-13.824 49.6 0l400.896 404.896c13.728 13.888 13.728 36.288 0 50.112l-400.896 404.896c-13.728 13.888-35.904 13.824-49.6 0-13.728-13.76-13.728-36.192 0-50.112l365.632-379.744z"></path>
</symbol>
<symbol id="icon--angle-up" viewBox="0 0 1024 1024">
	<title>angle-up</title>
	<path class="path1" d="M132.192 711.232c-13.92 13.728-36.288 13.728-50.112 0s-13.888-35.904 0-49.6l404.896-400.896c13.824-13.728 36.192-13.728 50.112 0l404.896 400.896c13.824 13.728 13.824 35.904 0 49.6-13.888 13.728-36.288 13.728-50.080 0l-379.904-365.632-379.808 365.632z"></path>
</symbol>
<symbol id="icon--arrow-right" viewBox="0 0 1024 1024">
	<title>arrow-right</title>
	<path class="path1" d="M514.226 992.835c-262.678 0-475.937-213.259-475.937-476.383 0-262.678 213.259-475.937 475.937-475.937 263.123 0 475.937 213.259 475.937 475.937 0 263.123-212.814 476.383-475.937 476.383zM514.226 114.866c-221.718 0-401.586 179.868-401.586 401.586 0 222.163 179.868 401.586 401.586 401.586s401.586-179.423 401.586-401.586c0-221.718-179.868-401.586-401.586-401.586zM410.045 665.6c0 0 148.703-149.148 148.703-149.148s-148.703-148.703-148.703-148.703c0 0 59.659-59.214 59.659-59.214s208.362 207.917 208.362 207.917c0 0-208.362 208.362-208.362 208.362s-59.659-59.214-59.659-59.214z"></path>
</symbol>
<symbol id="icon--bookmark" viewBox="0 0 1024 1024">
	<title>bookmark</title>
	<path class="path1" d="M225.882 0c0 0 572.235 0 572.235 0s0 1024 0 1024c0 0-284.16-150.588-284.16-150.588s-288.075 150.588-288.075 150.588c0 0 0-1024 0-1024z"></path>
</symbol>
<symbol id="icon--check" viewBox="0 0 1024 1024">
	<title>check</title>
	<path class="path1" d="M384 689.92l-177.92-177.92-60.384 60.384 238.304 238.304 512-512-60.384-60.384z"></path>
</symbol>
<symbol id="icon--cross" viewBox="0 0 1024 1024">
	<title>cross</title>
	<path class="path1" d="M810.656 170.656q18.336 0 30.496 12.16t12.16 30.496q0 18.016-12.32 30.336l-268.672 268.32 268.672 268.32q12.32 12.32 12.32 30.336 0 18.336-12.16 30.496t-30.496 12.16q-18.016 0-30.336-12.32l-268.32-268.672-268.32 268.672q-12.32 12.32-30.336 12.32-18.336 0-30.496-12.16t-12.16-30.496q0-18.016 12.32-30.336l268.672-268.32-268.672-268.32q-12.32-12.32-12.32-30.336 0-18.336 12.16-30.496t30.496-12.16q18.016 0 30.336 12.32l268.32 268.672 268.32-268.672q12.32-12.32 30.336-12.32z"></path>
</symbol>
<symbol id="icon--document" viewBox="0 0 1024 1024">
	<title>document</title>
	<path class="path1" d="M816 1024c0 0-608 0-608 0-35.344 0-64-28.656-64-64 0 0 0-896 0-896 0-35.344 28.656-64 64-64 0 0 352 0 352 0s320 320.016 320 320.016c0 0 0 639.984 0 639.984 0 35.344-28.656 64-64 64zM208 960c0 0 608 0 608 0s0-544 0-544c0 0-352 0-352 0s0-352 0-352c0 0-256 0-256 0s0 896 0 896zM533.504 64c0 0-5.504 0-5.504 0s0 288 0 288c0 0 288 0 288 0s0-5.472 0-5.472c0 0-282.496-282.528-282.496-282.528z"></path>
</symbol>
<symbol id="icon--documents" viewBox="0 0 1024 1024">
	<title>documents</title>
	<path class="path1" d="M960 896c0 0-224 0-224 0s0-64 0-64c0 0 224 0 224 0s0-512 0-512c0 0-256 0-256 0s0-256 0-256c0 0-288 0-288 0s-64 0-64 0c0-35.344 28.656-64 64-64 0 0 352 0 352 0s256 256.016 256 256.016c0 0 0 575.984 0 575.984 0 35.344-28.656 64-64 64zM768 90.496c0 0 0 165.504 0 165.504s165.472 0 165.472 0c0 0-165.472-165.504-165.472-165.504zM672 384.016c0 0 0 575.984 0 575.984 0 35.344-28.656 64-64 64 0 0-544 0-544 0-35.344 0-64-28.656-64-64 0 0 0-768 0-768 0-35.344 28.656-64 64-64 0 0 352 0 352 0s256 256.016 256 256.016zM416 218.496c0 0 0 165.504 0 165.504s165.472 0 165.472 0c0 0-165.472-165.504-165.472-165.504zM64 960c0 0 544 0 544 0s0-512 0-512c0 0-256 0-256 0s0-256 0-256c0 0-288 0-288 0s0 768 0 768z"></path>
</symbol>
<symbol id="icon--envelope" viewBox="0 0 1024 1024">
	<title>envelope</title>
	<path class="path1" d="M1024 743.984c0 53.024-26.976 112-80 112 0 0-832 0-832 0-53.024 0-112-58.976-112-112 0 0 0-512 0-512 0-2.576 0.752-4.8 1.024-7.248-1.712-9.248 0.16-19.056 6.784-26.704 1.712-1.968 3.632-3.584 5.648-5.040 20.352-27.056 60.768-41.008 98.544-41.008 0 0 832 0 832 0 43.808 0 69.536 18.704 77.264 55.024 2.128 5.216 2.864 10.688 2.144 16.16 0.176 2.944 0.592 5.68 0.592 8.816 0 0 0 512 0 512zM112 791.984c0 0 832 0 832 0 17.648 0 16-30.352 16-48 0 0 0-458.448 0-458.448s-427.056 341.632-427.056 341.632c-6 5.216-13.472 7.808-20.944 7.808s-14.944-2.592-20.96-7.808c0 0-427.040-341.632-427.040-341.632s0 458.448 0 458.448c0 17.648 30.352 48 48 48zM928 215.984c0 0-816 0-816 0-8.848 0-20.896-0.416-30.704 1.408 0 0 430.704 343.248 430.704 343.248s432.448-344.656 432.448-344.656c-0.176 0-0.272 0-0.448 0 0 0-16 0-16 0z"></path>
</symbol>
<symbol id="icon--facebook" viewBox="0 0 1024 1024">
	<title>facebook</title>
	<path class="path1" d="M588.8 345.6v-84.48c0-12.8 0-23.040 2.56-28.16 0-7.68 5.12-12.8 7.68-20.48 5.12-7.68 10.24-10.24 20.48-12.8s23.040-2.56 38.4-2.56h84.48v-171.52h-135.68c-79.36 0-135.68 17.92-168.96 56.32-33.28 35.84-51.2 92.16-51.2 163.84v99.84h-104.96v166.4h102.4v486.4h204.8v-486.4h135.68l17.92-166.4h-153.6z"></path>
</symbol>
<symbol id="icon--google" viewBox="0 0 1024 1024">
	<title>google</title>
	<path class="path1" d="M634.032 79.512h-227.2c-30.112 0-62.408 3.504-96.888 10.52-34.8 8.192-68.352 25.512-100.64 52.096-47.064 45.44-70.56 96.032-70.56 151.832 0 46.152 16.6 86.592 49.832 121.36 31.712 37.288 77.808 56.32 138.304 57.080 11.392 0 23.568-0.76 36.472-2.224-2.12 5.984-4.448 12.408-6.936 19.512-2.84 6.648-4.256 15.056-4.256 25.080 0 16.664 3.704 30.992 11.192 42.888 6.4 12.24 13.704 23.752 21.912 34.536-26.528 0.704-59.808 4.056-99.912 9.928-40.512 7.024-79.168 21.064-115.928 42.040-32.792 19.544-55.432 42.248-67.888 68.016-12.944 25.808-19.36 49.288-19.36 70.28 0 43.152 19.832 80.184 59.4 111.192 39.256 33.136 98.656 50.112 178.232 50.824 95.056-1.456 167.824-24.144 218.184-68.136 48.616-42.536 72.952-91.28 72.952-146.336-0.752-38.76-9.6-70.152-26.6-94.2-18.048-23.656-39.048-45.168-62.984-64.792l-38.552-31.584c-5.552-5.544-11.32-12.024-17.184-19.408-6.96-7.752-10.424-17.504-10.424-29.416 0-12.176 3.4-22.872 10.152-32.104 5.76-8.896 11.992-16.824 18.792-23.832 11.824-10.336 22.976-20.536 33.472-30.464 9.488-10 18.464-20.888 26.888-32.704 17.296-24.408 26.288-56.896 26.928-97.536 0-22.16-2.496-41.576-7.48-58.192-6.088-16.64-13.056-31.008-20.904-43.224-8.216-12.888-16.568-23.816-25.128-32.68-8.904-8.512-16.904-14.968-24.072-19.4h70.040l70.144-40.952zM509.528 699.056c18.768 21.416 28.168 46.496 28.168 75.352 0 35.504-13.744 64.488-41.248 87.056-28.176 22.904-69.056 34.712-122.592 35.48-59.704-0.768-106.712-14.056-141.104-39.904-36.16-25.864-54.184-58.768-54.184-98.688 0-20.304 4.096-37.664 12.456-52.072 7.192-13.696 16.064-25.152 26.56-34.376 10.872-8.848 21.536-15.712 32.016-20.512 10.496-4.424 18.608-7.768 24.4-9.968 24.6-7.4 48.672-12.76 72.184-16.088 23.856-2.208 38.696-2.92 44.48-2.208 9.736 0 18.24 0.344 25.504 1.112 42.344 29.584 73.44 54.504 93.36 74.816zM472.624 364.76c-2.736 15.176-8.904 29.992-18.544 44.416-19.912 20.368-44.832 31.136-74.744 32.24-23.688 0-44.72-7.216-63.104-21.68-18.456-14.432-33.448-32.008-45.104-52.736-24.040-44.448-36.040-87.168-36.040-128.232-0.776-31.104 7.464-59.24 24.672-84.392 20.424-24.080 46-36.488 76.792-37.232 23.264 0.744 43.848 7.632 61.752 20.528 17.536 13.68 31.688 31.496 42.448 53.312 22.904 45.488 34.368 90.696 34.368 135.448 0 10.4-0.856 23.136-2.496 38.328z"></path>
	<path class="path2" d="M822.624 203.608v-119.24h-57.76v119.24h-119.192v57.744h119.192v119.192h57.76v-119.192h119.192v-57.744z"></path>
</symbol>
<symbol id="icon--home" viewBox="0 0 1024 1024">
	<title>home</title>
	<path class="path1" d="M540.16 12.8c-15.36-15.36-40.96-15.36-56.32 0 0 0-369.28 368.64-369.28 368.64-11.52 12.16-18.56 28.8-18.56 45.44 0 0 0 533.76 0 533.76 0 35.2 28.8 64 64 64 0 0 224 0 224 0 35.2 0 64-28.8 64-64 0 0 0-224 0-224s128 0 128 0c0 0 0 224 0 224 0 35.2 28.8 64 64 64 0 0 224 0 224 0 35.2 0 64-28.8 64-64 0 0 0-533.76 0-533.76 0-16.64-7.040-33.28-18.56-45.44 0 0-369.28-368.64-369.28-368.64z"></path>
</symbol>
<symbol id="icon--instagram" viewBox="0 0 1024 1024">
	<title>instagram</title>
	<path class="path1" d="M853.534 69.271c0 0-693.911 0-693.911 0-63.849 0-115.652 51.2-115.652 114.447 0 0 0 686.682 0 686.682 0 63.247 51.802 114.447 115.652 114.447 0 0 693.911 0 693.911 0 63.247 0 115.049-51.2 115.049-114.447 0 0 0-686.682 0-686.682 0-63.247-51.802-114.447-115.049-114.447zM506.579 412.612c106.616 0 115.652 114.447 115.652 114.447s3.012 114.447-115.652 114.447c-119.266 0-115.652-114.447-115.652-114.447s9.035-114.447 115.652-114.447zM862.569 811.972c0 31.925-36.744 67.464-68.668 67.464 0 0-578.259 0-578.259 0-31.925 0-66.861-34.936-66.861-66.259 0 0 0-286.118 0-286.118 0-31.322 36.744-65.656 68.668-65.656 0 0 66.259 0 66.259 0-4.819 18.673-8.433 45.779-8.433 65.656 0 126.494 103.605 228.894 231.304 228.894s231.304-102.4 231.304-228.894c0-19.878-3.614-46.381-8.433-64.452 0 0 66.259 0 66.259 0 31.925 0 66.861 31.925 66.861 63.849 0 0 0 285.515 0 285.515zM853.534 298.165c0 31.925-25.901 57.224-57.826 57.224 0 0-57.826 0-57.826 0-31.925 0-57.826-25.299-57.826-57.224 0 0 0-57.224 0-57.224 0-31.322 25.901-57.224 57.826-57.224 0 0 57.826 0 57.826 0 31.925 0 57.826 25.901 57.826 57.224 0 0 0 57.224 0 57.224z"></path>
</symbol>
<symbol id="icon--link" viewBox="0 0 1024 1024">
	<title>link</title>
	<path class="path1" d="M948.319 357.36c0 0-126.944 126.944-126.944 126.944-39.999 39.999-92.412 59.991-144.809 59.991-26.766 0-52.523-3.293-77.603-13.722 0 0 50.192-50.223 50.192-50.223 9.263 1.875 17.755 0.914 27.412 0.914 37.856 0 73.476-14.746 100.257-41.511 0 0 127.26-127.26 127.26-127.26 54.949-54.949 54.949-144.92-0.315-200.216-26.766-26.766-62.401-41.527-100.242-41.527-37.904 0-73.476 14.761-100.273 41.527 0 0-127.275 123.321-127.275 123.321-37.872 37.888-48.994 92.27-34.517 140.635 0 0-48.884 48.868-48.884 48.868-37.163-76.359-24.245-170.945 39.18-234.37 0 0 126.944-123.006 126.944-123.006 39.968-39.983 92.396-59.991 144.825-59.991 52.397 0 104.795 20.007 144.794 59.991 79.967 79.998 79.967 209.652 0 289.634zM313.391 738.288c-8.066 0-16.132-3.072-22.276-9.232-12.32-12.304-12.32-32.248 0-44.552 0 0 381.7-384.677 381.7-384.677 12.304-12.304 32.248-12.304 44.552 0s12.304 32.248 0 44.552c0 0-381.7 384.677-381.7 384.677-6.16 6.16-14.226 9.232-22.276 9.232zM328.736 541.759c-37.872 0-73.476 14.746-100.257 41.511 0 0-124.314 128.252-124.314 128.252-54.949 54.949-54.949 144.92 0.331 200.216 26.766 26.766 62.369 41.511 100.242 41.511s73.476-14.746 100.257-41.511c0 0 127.26-123.321 127.26-123.321 35.478-35.478 46.71-80.549 36.297-126.472 0 0 49.955-49.924 49.955-49.924 32.406 74.831 19.172 160.091-42 221.263 0 0-126.96 123.006-126.96 123.006-39.983 39.999-92.396 59.975-144.809 59.975s-104.826-19.976-144.809-59.975c-79.982-79.998-79.982-209.652 0-289.634 0 0 123.999-127.937 123.999-127.937 39.983-39.983 92.396-59.975 144.809-59.975 29.712 0 59.329 6.648 86.772 19.488 0 0-49.184 49.184-49.184 49.184-12.162-3.34-24.639-5.656-37.589-5.656z"></path>
</symbol>
<symbol id="icon--lock" viewBox="0 0 1024 1024">
	<title>lock</title>
	<path class="path1" d="M543.651 747.52c0 0 0 99.142 0 99.142s-66.095 0-66.095 0c0 0 0-99.142 0-99.142-22.807-11.636-38.633-35.375-38.633-62.836 0-39.098 32.116-70.749 71.68-70.749s71.68 31.651 71.68 70.749c0 27.462-15.36 51.2-38.633 62.836 0 0 0 0 0 0zM176.873 473.367c0 0 0-120.553 0-120.553 0-203.869 127.535-330.007 333.731-330.007s333.731 126.138 333.731 330.007c0 0 0 120.553 0 120.553 50.269 14.429 85.178 60.509 85.178 112.175 0 0 0 298.356 0 298.356 0 64.233-53.062 116.829-118.225 116.829 0 0-601.367 0-601.367 0-64.698 0-118.225-52.596-118.225-116.829 0 0 0-298.356 0-298.356 0-51.665 35.375-97.745 85.178-112.175 0 0 0 0 0 0zM627.898 468.713c0 0 0-115.898 0-115.898 0-70.749-45.149-115.898-117.295-115.898-71.68 0-116.829 45.149-117.295 115.898 0 0 0 115.898 0 115.898s234.589 0 234.589 0c0 0 0 0 0 0zM242.967 352.815c0 0 0 115.898 0 115.898s84.247 0 84.247 0c0 0 0-115.898 0-115.898 0-107.055 74.938-181.062 183.389-181.062s183.389 74.007 183.389 181.062c0 0 0 115.898 0 115.898s84.247 0 84.247 0c0 0 0-115.898 0-115.898 0-167.564-98.211-264.378-267.636-264.378s-267.636 96.815-267.636 264.378c0 0 0 0 0 0zM811.287 534.342c0 0-601.367 0-601.367 0-28.393 0-51.665 22.807-51.665 51.2 0 0 0 298.356 0 298.356 0 27.927 23.273 51.2 51.665 51.2 0 0 601.367 0 601.367 0 28.393 0 51.665-23.273 51.665-51.2 0 0 0-298.356 0-298.356 0-27.927-23.273-51.2-51.665-51.2 0 0 0 0 0 0z"></path>
</symbol>
<symbol id="icon--menu" viewBox="0 0 1024 1024">
	<title>menu</title>
	<path class="path1" d="M128 213.344h768q17.664 0 30.176 12.512t12.512 30.176-12.512 30.176-30.176 12.512h-768q-17.664 0-30.176-12.512t-12.512-30.176 12.512-30.176 30.176-12.512zM128 725.344h768q17.664 0 30.176 12.512t12.512 30.176-12.512 30.176-30.176 12.512h-768q-17.664 0-30.176-12.512t-12.512-30.176 12.512-30.176 30.176-12.512zM128 469.344h768q17.664 0 30.176 12.512t12.512 30.176-12.512 30.176-30.176 12.512h-768q-17.664 0-30.176-12.512t-12.512-30.176 12.512-30.176 30.176-12.512z"></path>
</symbol>
<symbol id="icon--news" viewBox="0 0 1024 1024">
	<title>news</title>
	<path class="path1" d="M143.36 834.987c34.133 0 42.24-46.507 42.24-72.107 0 0 0-452.267 0-452.267s-107.947 0-107.947 0c0 0 0 465.92 0 465.92 0 34.56 32 58.453 65.707 58.453 0 0 0 0 0 0zM185.6 243.627c0 0 0-130.987 0-130.987s827.733 0 827.733 0c0 0 0 650.24 0 650.24 0 62.293-31.573 138.667-105.387 138.667 0 0-764.587 0-764.587 0-70.4 0-133.547-54.187-133.547-125.013 0 0 0-532.907 0-532.907s175.787 0 175.787 0c0 0 0 0 0 0zM253.867 762.88c0 27.307-5.12 51.627-14.080 71.68 0 0 668.16 0.427 668.16 0.427 29.44 0 37.12-51.2 37.12-72.107 0 0 0-583.253 0-583.253s-691.2 0-691.2 0c0 0 0 583.253 0 583.253s0 0 0 0zM332.373 279.893c0 0 0 66.987 0 66.987s82.347 0 82.347 0c0 0 0-66.987 0-66.987s-82.347 0-82.347 0c0 0 0 0 0 0zM481.28 279.893c0 0 0 66.987 0 66.987s82.347 0 82.347 0c0 0 0-66.987 0-66.987s-82.347 0-82.347 0c0 0 0 0 0 0zM630.187 279.893c0 0 0 66.987 0 66.987s82.773 0 82.773 0c0 0 0-66.987 0-66.987s-82.773 0-82.773 0c0 0 0 0 0 0zM779.093 279.893c0 0 0 66.987 0 66.987s82.773 0 82.773 0c0 0 0-66.987 0-66.987s-82.773 0-82.773 0c0 0 0 0 0 0zM512.853 473.6c0 0-129.707 0-129.707 0s0 79.787 0 79.787c0 0 129.707 0 129.707 0s0-79.787 0-79.787c0 0 0 0 0 0zM563.627 423.68c0 0 0 180.053 0 180.053s-231.253 0-231.253 0c0 0 0-180.053 0-180.053s231.253 0 231.253 0c0 0 0 0 0 0zM332.373 686.080c0 0 0 50.347 0 50.347s529.493 0 529.493 0c0 0 0-50.347 0-50.347s-529.493 0-529.493 0c0 0 0 0 0 0zM630.187 553.387c0 0 0 50.347 0 50.347s231.68 0 231.68 0c0 0 0-50.347 0-50.347s-231.68 0-231.68 0c0 0 0 0 0 0zM630.187 420.693c0 0 0 50.347 0 50.347s231.68 0 231.68 0c0 0 0-50.347 0-50.347s-231.68 0-231.68 0c0 0 0 0 0 0z"></path>
</symbol>
<symbol id="icon--paperclip" viewBox="0 0 1024 1024">
	<title>paperclip</title>
	<path class="path1" d="M170.551 999.519c-42.74 0-83.779-17.707-116.468-50.444-72.531-72.736-72.531-191.063-0.016-263.767 0 0 565.421-600.442 565.421-600.442 88.222-88.379 223.358-80.439 321.977 18.322 44.174 44.253 68.986 108.087 68.057 175.167-0.929 66.355-26.86 129.89-71.176 174.269 0 0-427.339 454.955-427.339 454.955-11.878 12.729-31.839 13.312-44.536 1.355-12.65-11.973-13.265-31.949-1.339-44.646 0 0 427.985-455.633 427.985-455.633 33.477-33.54 52.681-81.117 53.39-131.198 0.709-50.097-17.376-97.343-49.593-129.623-60.495-60.621-158.988-92.381-232.227-18.968 0 0-565.406 600.442-565.406 600.442-48.616 48.742-48.601 127.023-0.63 175.12 22.481 22.512 49.199 33.477 77.619 31.76 28.152-1.733 57.060-16.163 81.447-40.613 0 0 449.898-478.838 449.898-478.838 16.305-16.337 49.073-56.383 15.722-89.813-18.889-18.92-32.154-17.755-36.517-17.408-12.461 1.119-27.018 9.736-42.126 24.891 0 0-338.597 360.149-338.597 360.149-11.957 12.713-31.933 13.328-44.552 1.323-12.666-11.926-13.249-31.933-1.323-44.615 0 0 339.243-360.81 339.243-360.81 26.671-26.813 53.941-41.322 81.684-43.827 21.662-1.906 53.878 2.694 86.741 35.651 48.774 48.853 42.709 120.548-15.045 178.428 0 0-449.898 478.838-449.898 478.838-35.919 36.045-79.289 56.982-122.785 59.66-3.214 0.221-6.412 0.315-9.61 0.315z"></path>
</symbol>
<symbol id="icon--pencil" viewBox="0 0 1024 1024">
	<title>pencil</title>
	<path class="path1" d="M952.966 292.376c-37.494 38.707-602.364 597.307-626.42 621.080-3.702 3.671-8.302 6.396-13.312 7.893-38.046 11.343-269.217 86.095-271.533 86.835-3.214 1.040-6.522 1.544-9.783 1.544-8.287 0-16.384-3.245-22.481-9.295-8.46-8.444-11.579-20.953-8.066-32.421 0.677-2.253 69.081-226.209 82.755-276.685 1.497-5.435 4.364-10.398 8.334-14.383 0 0 605.641-605.861 623.38-623.443 12.619-12.509 58.746-53.343 121.935-53.343 40.44 0 78.328 16.668 112.64 49.562 38.975 37.384 59.108 77.399 59.865 118.973 0.74 42.094-18.527 83.716-57.312 123.683zM76.075 932.092c60.936-19.645 156.814-52.744 200.625-66.828-5.971-19.125-19.251-50.491-47.529-79.006-36.722-37.022-72.672-50.318-89.954-54.886-14.604 48.805-45.088 141.296-63.141 200.72zM274.4 740.683c26.986 27.207 43.748 56.32 54.13 80.502 112.388-111.159 397.564-393.311 521.468-516.584-1.89-10.019-12.351-55.154-51.594-94.744-38.849-39.18-76.674-51.767-92.601-55.58-121.951 121.919-412.546 412.609-523.768 523.878 25.868 10.555 59.408 29.302 92.365 62.527zM906.319 96.429c-22.008-21.11-45.056-31.807-68.545-31.807-40.771 0-73.492 31.271-77.084 34.832-0.646 0.63-2.332 2.3-4.443 4.427 25.112 10.87 56.462 29.239 87.371 60.4 30.247 30.515 47.718 63.456 57.675 89.104 2.536-2.552 4.679-4.726 5.955-6.049 26.372-27.191 39.511-53.264 39.070-77.462-0.441-23.694-13.895-48.412-39.999-73.444z"></path>
</symbol>
<symbol id="icon--pointer2" viewBox="0 0 1024 1024">
	<title>pointer2</title>
	<path class="path1" d="M776.743 107.993c-146.255-144.601-383.153-144.601-529.408 0-146.235 144.522-146.235 378.978 0 523.422 0 0 264.566 253.342 264.566 392.015 0-146.018 264.842-392.015 264.842-392.015 146.235-144.443 146.235-378.9 0-523.422zM511.882 517.986c-82.609 0-149.602-66.225-149.602-148.066 0-81.822 66.993-148.047 149.602-148.047 82.924 0 149.898 66.225 149.898 148.047 0 81.841-66.974 148.066-149.898 148.066z"></path>
</symbol>
<symbol id="icon--printer" viewBox="0 0 1024 1024">
	<title>printer</title>
	<path class="path1" d="M952.736 831.072c0 0-120.72 0-120.72 0s0 192 0 192c0 0-640.032 0-640.032 0s0-192 0-192c0 0-120.72 0-120.72 0-39.312 0-71.312-32-71.312-71.344 0 0 0-433.888 0-433.888 0-39.344 32-71.344 71.312-71.344 0 0 120.72 0 120.72 0s0-254.448 0-254.448c0 0 640.032 0 640.032 0s0 254.448 0 254.448c0 0 120.72 0 120.72 0 39.312 0 71.312 32 71.312 71.344 0 0 0 433.888 0 433.888 0 39.344-32 71.344-71.312 71.344zM255.984 959.072c0 0 512.032 0 512.032 0s0-352.368 0-352.368c0 0-512.032 0-512.032 0s0 352.368 0 352.368zM768.016 63.040c0 0-512.032 0-512.032 0s0 191.456 0 191.456c0 0 512.032 0 512.032 0s0-191.456 0-191.456zM960.048 325.84c0-4.064-3.28-7.344-7.312-7.344 0 0-881.472 0-881.472 0-4.032 0-7.312 3.28-7.312 7.344 0 0 0 433.888 0 433.888 0 4.064 3.28 7.344 7.312 7.344 0 0 120.72 0 120.72 0s0-224.368 0-224.368c0 0 640.032 0 640.032 0s0 224.368 0 224.368c0 0 120.72 0 120.72 0 4.032 0 7.312-3.28 7.312-7.344 0 0 0-433.888 0-433.888zM832 446.992c0 0-32 0-32 0-17.68 0-32-14.32-32-32 0-17.664 14.32-32 32-32 0 0 32 0 32 0 17.68 0 32 14.336 32 32 0 17.68-14.32 32-32 32z"></path>
</symbol>
<symbol id="icon--refresh" viewBox="0 0 1024 1024">
	<title>refresh</title>
	<path class="path1" d="M936.288 647.424c-35.136 110.592-111.296 200.896-214.4 254.24-4.544 2.368-9.376 3.488-14.144 3.488-11.104 0-21.824-6.048-27.264-16.576-7.776-15.072-1.92-33.6 13.152-41.408 88.512-45.824 153.92-123.36 184.128-218.368s21.6-196.032-24.256-284.544c-48.448-93.664-131.68-162.72-233.76-189.44-12.256-3.232-24.992-4.704-37.568-6.688 0 0 57.888 89.824 57.888 89.824 6.464 10.56 5.728 25.984-5.152 31.872 0 0-7.136 4.992-7.136 4.992-10.88 5.952-24.96 2.176-31.36-8.448 0 0-90.88-142.048-90.88-142.048-0.128-0.16-0.32-0.288-0.416-0.48 0 0-5.856-9.6-5.856-9.6-3.232-5.28-3.936-11.36-2.432-16.8 1.44-5.44 5.024-10.368 10.528-13.344 0 0 9.824-5.408 9.824-5.408 0.192-0.128 0.416-0.096 0.576-0.192 0 0 147.2-75.392 147.2-75.392 10.848-5.888 24.896-2.144 31.36 8.48 0 0 3.104 8.064 3.104 8.064 6.432 10.624-0.032 24.032-10.944 30.016 0 0-80.512 40.832-80.512 40.832 9.088 1.792 18.432 2.496 27.36 4.864 118.816 31.136 216.256 111.52 272.704 220.608 53.376 103.104 63.392 220.8 28.224 331.456zM504.448 913.728c-1.44 5.44-5.024 10.368-10.496 13.344 0 0-9.856 5.408-9.856 5.408-0.192 0.128-0.416 0.096-0.576 0.256 0 0-147.168 75.328-147.168 75.328-10.848 5.952-22.048 2.208-28.512-8.448 0 0-3.104-8.032-3.104-8.032-6.464-10.656-2.88-24.096 8.032-30.080 0 0 80.704-40.928 80.704-40.928-1.44-0.32-2.944-0.384-4.384-0.736-118.88-31.136-219.424-111.584-275.936-220.704-53.376-103.104-63.392-220.8-28.224-331.392 35.136-110.688 114.4-200.96 217.536-254.336 15.040-7.872 33.6-1.92 41.376 13.152 7.808 15.072 1.92 33.632-13.152 41.408-88.512 45.792-157.056 123.36-187.2 218.368-30.24 94.976-21.6 196.032 24.192 284.544 48.544 93.728 134.88 162.784 236.928 189.472 4.704 1.216 9.664 1.504 14.464 2.592 0 0-57.824-89.696-57.824-89.696-6.464-10.624-6.688-25.984 4.192-31.904 0 0 8.096-4.992 8.096-4.992 10.944-5.952 24.96-2.176 31.36 8.448 0 0 90.944 142.016 90.944 142.016 0.096 0.256 0.288 0.32 0.384 0.544 0 0 5.856 9.632 5.856 9.632 3.232 5.248 3.936 11.296 2.432 16.768z"></path>
</symbol>
<symbol id="icon--search" viewBox="0 0 1024 1024">
	<title>search</title>
	<path class="path1" d="M482.743 306.225c31.695 32.183 79.97-16.579 48.274-48.762-38.522-38.522-88.747-57.539-138.971-57.539s-100.937 19.017-138.971 57.539c-32.183 32.183 16.579 80.945 48.274 48.762 24.869-24.869 58.027-37.547 90.697-37.547s65.341 12.678 90.697 37.547c0 0 0 0 0 0zM663.65 720.213c0 0 54.613-54.613 54.613-54.613s-51.688-51.688-51.688-51.688c-15.604 19.992-34.133 39.010-53.638 55.101 0 0 50.712 51.2 50.712 51.2s0 0 0 0zM766.537 713.874c0 0-54.613 55.101-54.613 55.101s168.716 169.691 168.716 169.691c0 0 54.613-55.101 54.613-55.101s-168.716-169.691-168.716-169.691c0 0 0 0 0 0zM704.122 553.935c0 0 297.935 299.398 297.935 299.398 16.579 16.579 16.579 43.886 0 60.465 0 0-91.185 91.672-91.185 91.672-16.579 16.579-43.886 16.579-59.977 0 0 0-296.472-297.448-296.472-297.448-50.712 26.819-106.789 39.985-162.377 39.985-192.61 0-349.135-157.013-349.135-350.598s156.526-350.598 349.135-350.598c192.61 0 349.135 157.013 349.135 350.598 0 53.638-12.678 107.764-37.059 156.526 0 0 0 0 0 0zM392.046 115.566c-155.063 0-280.381 126.293-280.381 281.844s125.318 281.844 280.381 281.844c155.063 0 280.381-126.293 280.381-281.844s-125.318-281.844-280.381-281.844c0 0 0 0 0 0z"></path>
</symbol>
<symbol id="icon--settings" viewBox="0 0 1024 1024">
	<title>settings</title>
	<path class="path1" d="M960 610.56c0 0-83.152 20.784-83.152 20.784-6.224 18.992-13.984 37.28-22.912 54.848 0 0 44.464 74.128 44.464 74.128 16.608 26.496 24.976 65.488 0 90.496 0 0-45.28 45.248-45.28 45.248-24.96 24.992-67.152 20.496-92.624 2.848 0 0-72.176-46.016-72.176-46.016-18.48 9.568-37.76 17.76-57.856 24.256 0 0-18.464 83.344-18.464 83.344-5.504 30.496-32.16 63.504-67.504 63.504 0 0-64 0-64 0-35.344 0-56.992-33.504-64-64 0 0-20.48-81.904-20.48-81.904-21.824-6.912-42.752-15.824-62.704-26.352 0 0-74 47.168-74 47.168-25.472 17.648-67.648 22.144-92.624-2.848 0 0-45.28-45.248-45.28-45.248-24.976-25.008-16.592-64 0-90.496 0 0 46.816-78.016 46.816-78.016-8.144-16.4-15.312-33.328-21.072-50.96 0 0-83.152-20.784-83.152-20.784-30.496-6.992-64-28.656-64-64 0 0 0-64 0-64 0-35.344 32.992-62 63.504-67.504 0 0 82.096-18.208 82.096-18.208 6-19.104 13.792-37.36 22.56-55.040 0 0-46.752-77.92-46.752-77.92-16.608-26.512-24.992-65.52 0-90.512 0 0 45.264-45.248 45.264-45.248 24.992-24.992 67.168-20.512 92.624-2.832 0 0 73.84 47.024 73.84 47.024 19.84-10.448 40.64-19.296 62.336-26.192 0 0 20.528-82.128 20.528-82.128 6.992-30.496 28.656-64 64-64 0 0 64 0 64 0 35.344 0 62 32.992 67.504 63.504 0 0 18.432 83.12 18.432 83.12 20.32 6.56 39.84 14.864 58.528 24.56 0 0 72.032-45.888 72.032-45.888 25.472-17.68 67.664-22.16 92.624 2.832 0 0 45.28 45.248 45.28 45.248 24.976 24.992 16.608 64 0 90.512 0 0-44.432 74.032-44.432 74.032 9.616 18.848 18 38.432 24.4 58.928 0 0 82.128 18.208 82.128 18.208 30.512 5.504 63.504 32.16 63.504 67.504 0 0 0 64 0 64 0 35.344-33.504 57.008-64 64zM946.624 477.536c0 0-118.288-26.24-118.288-26.24s-11.056-35.344-11.056-35.344c-4.944-15.856-11.6-31.856-20.304-48.928 0 0-16.16-31.6-16.16-31.6s63.344-105.488 63.344-105.488c3.488-5.616 5.248-11.088 5.808-14.416 0 0-42-40.816-42-40.816-4.16 0-8.784 1.632-13.088 4.576 0 0-103.168 65.712-103.168 65.712s-32.736-17.008-32.736-17.008c-15.968-8.304-32.384-15.168-48.72-20.448 0 0-34.848-11.264-34.848-11.264s-26.88-121.408-26.88-121.408c-0.848-4.624-4.96-10.208-4.528-10.864 0 0-59.504 0-59.504 0-1.984 2.784-4.704 8.128-6.4 15.52 0 0-29.184 116.752-29.184 116.752s-34.016 10.832-34.016 10.832c-17.584 5.6-35.040 12.944-51.92 21.84 0 0-32.864 17.328-32.864 17.328s-107.312-68.4-107.312-68.4c-2.208-1.536-6.8-3.168-10.88-4.48 0 0-42.080 42.064-42.080 42.064 0.56 3.36 2.432 9.072 6.448 15.504 0 0 64.752 107.92 64.752 107.92s-15.552 31.376-15.552 31.376c-8.144 16.432-14.304 31.392-18.816 45.776 0 0-11.088 35.28-11.088 35.28s-120.72 26.736-120.72 26.736c-4.4 0.8-9.648 4.544-10.72 4.544-0.064 0-0.112-0.016-0.144-0.032 0 0 0 59.504 0 59.504 2.784 1.968 8.128 4.72 15.52 6.4 0 0 117.504 29.376 117.504 29.376s10.976 33.664 10.976 33.664c4.48 13.744 10.24 27.616 17.552 42.368 0 0 15.552 31.344 15.552 31.344s-65.456 109.056-65.456 109.056c-3.488 5.6-5.232 11.072-5.792 14.384 0 0 41.968 40.848 41.968 40.848 4.192 0 8.8-1.664 13.088-4.576 0 0 105.36-67.152 105.36-67.152s32.912 17.376 32.912 17.376c17.040 9.008 34.576 16.384 52.144 21.904 0 0 34.096 10.816 34.096 10.816s29.456 117.808 29.456 117.808c1.472 6.48 4.144 11.6 6.112 14.32 0 0 57.584 0 57.584 0 2.32-1.84 5.728-6.976 6.96-13.344 0 0 26.368-119.12 26.368-119.12s34.88-11.296 34.88-11.296c16.112-5.216 32.304-11.984 48.096-20.176 0 0 32.752-16.944 32.752-16.944s105.344 67.184 105.344 67.184c2.208 1.536 6.832 3.2 10.896 4.48 0 0 42.096-42.032 42.096-42.032-0.56-3.376-2.432-9.088-6.432-15.504 0 0-62.688-104.528-62.688-104.528s16.048-31.568 16.048-31.568c7.728-15.184 14.16-30.56 19.136-45.712 0 0 10.992-33.632 10.992-33.632s118.656-29.616 118.656-29.616c6.512-1.504 11.632-4.192 14.352-6.144 0 0 0.496-56.8 0.496-56.8-1.184-2.24-6.752-6.384-13.904-7.712zM512.432 704.288c-106.272 0-192.736-86.272-192.736-192.288 0-106.032 86.464-192.304 192.736-192.304s192.736 86.272 192.736 192.304c0 106.016-86.464 192.288-192.736 192.288zM512 383.984c-70.592 0-128 57.424-128 128.016 0 70.576 57.408 127.984 128 127.984 70.576 0 128-57.408 128-127.984 0-70.592-57.424-128.016-128-128.016z"></path>
</symbol>
<symbol id="icon--speech" viewBox="0 0 1024 1024">
	<title>speech</title>
	<path class="path1" d="M960 769.6c0 0-529.008 0-529.008 0s-185.024 182.112-185.024 182.112c-6.096 6-14.192 9.2-22.432 9.2-4.16 0-8.384-0.816-12.384-2.512-11.872-4.96-19.616-16.592-19.616-29.488 0 0 0-159.312 0-159.312s-127.536 0-127.536 0c-35.344 0-64-28.656-64-64 0 0 0-577.504 0-577.504 0-35.344 28.656-64 64-64 0 0 896 0 896 0 35.344 0 64 28.656 64 64 0 0 0 577.504 0 577.504 0 35.344-28.656 64-64 64zM960 128.096c0 0-896 0-896 0s0 577.504 0 577.504c0 0 191.536 0 191.536 0s0 146.896 0 146.896c0 0 149.248-146.896 149.248-146.896s555.216 0 555.216 0c0 0 0-577.504 0-577.504zM192 545.504c0-17.68 14.32-32 32-32 0 0 384 0 384 0 17.664 0 32 14.32 32 32 0 17.664-14.336 32-32 32 0 0-384 0-384 0-17.68 0-32-14.336-32-32zM192 417.504c0-17.68 14.32-32 32-32 0 0 576 0 576 0 17.68 0 32 14.32 32 32 0 17.664-14.32 32-32 32 0 0-576 0-576 0-17.68 0-32-14.336-32-32zM800 321.504c0 0-576 0-576 0-17.68 0-32-14.336-32-32 0-17.68 14.32-32 32-32 0 0 576 0 576 0 17.68 0 32 14.32 32 32 0 17.664-14.32 32-32 32z"></path>
</symbol>
<symbol id="icon--star" viewBox="0 0 1024 1024">
	<title>star</title>
	<path class="path1" d="M504.627 76.768c0 0 115.161 238.813 115.161 238.813s20.212 41.889 20.212 41.889c0 0 46.064 6.869 46.064 6.869s261.734 38.88 261.734 38.88c0 0-190.874 190.401-190.874 190.401s-32.059 31.98-32.059 31.98c0 0 7.467 44.631 7.467 44.631s44.599 265.988 44.599 265.988c0 0-230.668-124.046-230.668-124.046s-41.685-22.433-41.685-22.433c0 0-41.669 22.433-41.669 22.433s-230.668 124.093-230.668 124.093c0 0 44.599-266.035 44.599-266.035s7.467-44.631 7.467-44.631c0 0-32.059-31.98-32.059-31.98s-190.795-190.401-190.795-190.401c0 0 261.75-38.88 261.75-38.88s46.048-6.869 46.048-6.869c0 0 20.212-41.889 20.212-41.889s115.161-238.813 115.161-238.813zM504.611 15.785c-28.199 0-53.925 15.911-65.946 40.818 0 0-114.121 236.938-114.121 236.938s-262.601 39.070-262.601 39.070c-26.971 4.017-49.357 22.433-58.069 47.655-8.68 25.253-2.111 53.059 16.935 72.027 0 0 192.402 192.197 192.402 192.197s-44.631 266.492-44.631 266.492c-4.49 26.86 7.121 53.784 29.917 69.49 12.524 8.602 27.238 12.981 41.968 12.981 12.13 0 24.261-2.946 35.241-8.838 0 0 228.903-123.274 228.903-123.274s228.951 123.274 228.951 123.274c11.012 5.892 23.158 8.838 35.241 8.838 14.714 0 29.444-4.38 42.016-12.981 22.749-15.707 34.359-42.63 29.822-69.49 0 0-44.631-266.492-44.631-266.492s192.48-192.197 192.48-192.197c19.046-18.968 25.568-46.773 16.904-72.027-8.712-25.222-31.098-43.638-58.069-47.655 0 0-262.569-39.070-262.569-39.070s-114.152-236.938-114.152-236.938c-11.973-24.907-37.699-40.818-65.993-40.818 0 0 0 0 0 0z"></path>
</symbol>
<symbol id="icon--tools" viewBox="0 0 1024 1024">
	<title>tools</title>
	<path class="path1" d="M1002.016 212.192c-10.56-4.864-23.104-3.040-31.904 4.736 0 0-158.016 141.952-158.016 141.952s-142.656-146.336-142.656-146.336c0 0 141.248-163.136 141.248-163.136 7.68-8.864 9.536-21.088 4.768-31.84s-15.328-17.344-26.944-17.344c0 0-8.512 0-8.512 0-87.328 0-238.016 7.52-305.312 75.776 0 0-13.6 13.472-13.6 13.472-71.776 73.248-84.544 193.344-46.72 284.64 0 0-361.76 369.216-361.76 369.216-48.768 49.472-48.768 129.632 0 179.104 0 0 44.16 44.768 44.16 44.768 24.384 24.736 56.352 37.088 88.32 37.088s63.936-12.384 88.32-37.088c0 0 367.104-370.016 367.104-370.016 34.688 18.752 82.272 31.008 122.24 31.008 64.032 0 124.736-25.824 170.976-72.736 0 0 13.344-13.536 13.344-13.536 73.088-74.112 71.968-232.48 72.32-302.112 0.032-11.84-6.784-22.624-17.376-27.552zM903.36 499.264c0 0-11.648 13.568-11.648 13.568-35.008 35.52-80.8 52.544-128.928 52.544-23.808 0-55.936-4.48-77.632-13.536-19.552-8.128-37.792-19.872-54.048-34.72 0 0-401.792 405.184-401.792 405.184-11.776 11.968-27.456 18.56-44.16 18.56s-32.352-6.592-44.16-18.56c0 0-44.128-44.768-44.128-44.768-24.352-24.704-24.352-64.864-0.032-89.536 0 0 392.608-400.544 392.608-400.544-13.152-19.168-22.112-40.064-27.488-61.696 0 0 0 0 0 0-15.104-61.12-6.304-145.568 41.184-193.984 0 0 13.504-13.632 13.504-13.632 40.704-41.28 146.4-53.504 204.928-57.088 0 0-114.976 132.768-114.976 132.768-10.272 11.872-9.76 29.792 1.184 41.024 0 0 181.728 186.432 181.728 186.432 11.040 11.328 28.864 12 40.704 1.472 0 0 127.968-115.232 127.968-115.232-3.808 62.080-15.872 152.224-54.784 191.712z"></path>
</symbol>
<symbol id="icon--trash" viewBox="0 0 1024 1024">
	<title>trash</title>
	<path class="path1" d="M883.98 220.412c0 0-43.339 0-43.339 0s-73.145 728.852-73.145 728.852c-3.040 33.792-32.059 60.526-66.072 60.526 0 0-392.649 0-392.649 0-34.013 0-63.047-26.734-66.119-60.826 0 0-73.098-728.552-73.098-728.552s-43.323 0-43.323 0c-17.408 0-31.508-14.1-31.508-31.508 0-17.392 14.1-31.508 31.508-31.508 0 0 221.814 0 221.814 0s0-85.921 0-85.921c0-39.904 32.469-71.381 72.389-71.381 0 0 169.338 0 169.338 0 39.904 0 72.389 31.476 72.389 71.381 0 0 0 85.921 0 85.921s221.814 0 221.814 0c17.424 0 31.508 14.115 31.508 31.508 0 17.408-14.084 31.508-31.508 31.508zM305.404 942.994c0.173 2.064 2.253 3.781 3.371 3.781 0 0 392.649 0 392.649 0 1.119 0 3.167-1.717 3.324-3.482 0 0 72.562-722.881 72.562-722.881s-544.406 0-544.406 0c0 0 72.499 722.582 72.499 722.582zM599.15 71.475c0-5.152-4.206-9.358-9.374-9.358 0 0-169.338 0-169.338 0-5.183 0-9.374 4.206-9.374 9.358 0 0 0 85.921 0 85.921s188.085 0 188.085 0c0 0 0-85.921 0-85.921z"></path>
</symbol>
<symbol id="icon--twitter" viewBox="0 0 1024 1024">
	<title>twitter</title>
	<path class="path1" d="M1024 209.408c-38.144 16.64-76.544 26.88-114.944 30.976 43.264-26.112 72.448-62.72 87.808-110.336-39.424 23.552-81.664 39.68-126.464 48.384-39.424-42.24-88.064-63.232-145.664-63.232-55.040 0-102.144 19.456-141.056 58.624-38.912 38.912-58.368 86.272-58.368 141.568 0 14.848 1.536 30.208 4.864 45.824-81.408-4.096-157.952-24.576-229.376-61.696-71.424-36.864-131.84-86.272-181.76-147.968-17.92 31.232-27.136 65.024-27.136 101.376 0 34.304 7.936 66.048 24.064 95.488s37.632 52.992 64.768 71.168c-32-1.28-62.208-9.728-90.112-25.344v2.56c0 48.384 15.104 90.88 45.312 127.488s68.352 59.648 114.432 69.12c-17.152 4.608-34.816 6.912-52.48 6.912-11.52 0-24.064-1.024-37.632-3.072 12.8 40.192 36.096 73.216 70.4 98.816 34.048 25.856 72.96 39.168 115.968 39.936-72.448 57.088-154.88 85.504-247.552 85.504-17.664 0-33.792-0.768-48.128-2.56 92.928 59.904 194.816 89.856 306.432 89.856 70.912 0 137.216-11.264 199.424-33.792s115.2-52.736 159.232-90.368c44.032-37.888 81.92-81.408 113.92-130.56 31.744-49.152 55.552-100.608 71.168-154.112s23.552-107.264 23.552-160.768c0-11.52-0.256-20.224-0.512-26.112 38.912-28.672 72.192-63.232 99.84-103.68z"></path>
</symbol>
<symbol id="icon--user-male2" viewBox="0 0 1024 1024">
	<title>user-male2</title>
	<path class="path1" d="M511.945-0.274c124.197 0 255.927 104.613 255.927 182.693 0 0 0 182.766 0 182.766 0 70.345-29.257 204.946-107.721 266.715-20.005 15.762-30.391 40.795-27.392 66.066 2.999 25.344 18.962 47.232 42.094 57.874 0 0 318.299 150.93 318.299 150.93 2.487 1.134 30.501 5.851 30.501 44.946 0 0 0.037 71.406 0.037 71.406s-1023.433 0.037-1023.433 0.037c0 0 0-74.222 0-74.222 0-29.056 21.833-38.199 30.537-42.203 0 0 321.189-151.57 321.189-151.57 23.022-10.569 38.912-32.366 42.002-57.509 3.109-25.143-7.022-50.103-26.807-65.957-75.977-61.001-111.36-195.090-111.36-266.514 0 0 0-182.766 0-182.766 0-76.398 133.029-182.693 256.128-182.693z"></path>
</symbol>
<symbol id="icon--youtube" viewBox="0 0 1024 1024">
	<title>youtube</title>
	<path class="path1" d="M953.344 883.712c0 68.096-56.832 123.392-125.952 123.392-99.328 4.096-201.216 5.632-304.64 5.632s-205.312-1.536-304.128-5.632c-69.632 0-125.952-55.296-125.952-123.392-4.608-53.76-6.144-107.52-6.144-161.28s1.536-108.032 6.144-161.792c0-68.096 56.32-122.88 125.952-122.88 98.816-4.096 200.704-6.144 304.128-5.632 103.424-0.512 205.312 1.536 304.64 5.632 69.12 0 125.952 54.784 125.952 122.88 4.096 53.76 5.632 108.032 5.632 161.792s-1.536 107.52-5.632 161.28zM337.408 521.728c0 0-183.296 0-183.296 0s0 55.808 0 55.808c0 0 61.952 0 61.952 0s0 326.144 0 326.144c0 0 59.392 0 59.392 0s0-326.144 0-326.144c0 0 61.952 0 61.952 0s0-55.808 0-55.808zM487.424 622.080c0 0-52.736 0-52.736 0s0 213.504 0 213.504c-5.12 6.144-10.752 11.264-16.384 15.36-6.144 4.096-10.752 5.632-14.848 5.632-5.12 0-8.704-1.536-10.752-4.096-2.048-3.072-3.072-8.192-3.072-14.848 0 0 0-215.552 0-215.552s-53.248 0-53.248 0c0 0 0 235.008 0 235.008 0 16.896 3.072 29.696 9.216 37.888 6.144 8.704 15.36 12.8 27.648 12.8 10.24 0 20.48-3.072 30.72-9.216 10.752-6.144 20.992-14.848 30.72-26.112 0 0 0 31.232 0 31.232s52.736 0 52.736 0c0 0 0-281.6 0-281.6zM691.2 689.152c0-23.040-4.608-40.448-13.312-52.736-8.704-11.776-21.504-17.92-38.4-17.92-8.192 0-15.872 2.048-24.064 6.656s-15.872 10.752-23.040 19.456c0 0 0-122.88 0-122.88s-53.248 0-53.248 0c0 0 0 381.952 0 381.952s53.248 0 53.248 0c0 0 0-22.016 0-22.016 7.168 8.704 14.848 15.36 23.040 19.456 7.68 4.096 16.896 6.144 27.648 6.144 15.36 0 27.648-5.632 35.84-15.872 8.192-10.752 12.288-26.112 12.288-46.080 0 0 0-156.16 0-156.16zM886.784 802.816c0 0-54.272 0-54.272 0s0 19.456 0 19.456c0 16.896-2.048 27.648-5.12 32.256-3.584 5.12-9.728 7.168-18.432 7.168s-14.336-2.56-17.92-8.192c-3.584-6.144-5.12-16.384-5.12-31.232 0 0 0-52.736 0-52.736s100.864 0 100.864 0c0 0 0-71.68 0-71.68 0-26.624-6.144-47.104-19.456-61.44-12.8-14.336-31.744-21.504-55.808-21.504-23.552 0-43.008 7.68-57.856 23.040s-22.528 35.328-22.528 59.904c0 0 0 126.464 0 126.464 0 26.624 6.656 48.128 20.48 63.488 13.824 15.872 32.256 23.552 55.808 23.552 26.624 0 46.080-7.68 59.392-22.016 13.312-14.848 19.968-36.352 19.968-65.024 0 0 0-21.504 0-21.504zM785.92 697.344c0-11.776 1.536-20.48 5.12-25.6s9.728-7.68 18.432-7.68c7.68 0 13.824 2.56 17.408 7.68s5.632 13.824 5.632 25.6c0 0 0 28.16 0 28.16s-46.592 0-46.592 0c0 0 0-28.16 0-28.16zM617.984 862.72c-4.608 0-8.704-1.024-12.8-3.072-4.096-1.536-8.192-5.12-12.8-9.728 0 0 0-175.616 0-175.616 3.584-3.584 7.68-6.656 11.264-8.192 3.584-2.048 7.168-3.072 11.264-3.072 7.168 0 12.288 2.56 16.384 7.68 3.584 4.608 5.632 11.776 5.632 21.504 0 0 0 145.408 0 145.408 0 8.704-1.536 15.36-4.608 19.456-3.072 3.584-7.68 5.632-14.336 5.632zM740.864 350.72c-9.728 11.264-19.456 19.968-30.208 26.112s-20.992 8.704-30.72 8.704c-12.288 0-21.504-4.096-27.648-12.288s-9.216-20.992-9.216-37.888c0 0 0-235.008 0-235.008s52.736 0 52.736 0c0 0 0 215.552 0 215.552 0 6.656 1.024 11.776 3.584 14.848 2.048 2.56 5.632 4.096 10.752 4.096 3.584 0 8.704-2.048 14.336-5.632 6.144-4.096 11.776-9.216 16.384-15.36 0 0 0-213.504 0-213.504s53.248 0 53.248 0c0 0 0 281.6 0 281.6s-53.248 0-53.248 0c0 0 0-31.232 0-31.232zM520.704 389.12c-23.040 0-41.472-7.168-55.296-21.504-14.336-14.336-20.992-33.28-20.992-56.832 0 0 0-146.432 0-146.432 0-21.504 7.168-38.912 21.504-51.712 14.336-13.312 33.28-19.456 57.344-19.456 22.016 0 39.936 6.656 53.76 20.48 13.824 13.312 20.992 31.232 20.992 52.224 0 0 0 145.408 0 145.408 0 24.064-6.656 43.008-20.48 56.832s-32.768 20.992-56.832 20.992zM544.256 162.304c0-6.144-2.56-10.752-6.656-14.848-4.608-3.584-9.728-5.632-16.896-5.632-6.656 0-11.776 2.048-15.872 5.632-4.096 4.096-6.144 8.704-6.144 14.848 0 0 0 153.6 0 153.6 0 7.68 2.048 13.824 5.632 17.92 4.096 4.096 9.216 6.144 16.384 6.144s12.8-2.048 16.896-6.144c4.096-4.608 6.656-10.752 6.656-17.92 0 0 0-153.6 0-153.6zM377.856 381.952c0 0-59.904 0-59.904 0s0-151.552 0-151.552c0 0-70.656-230.4-70.656-230.4s59.904 0 59.904 0c0 0 38.4 152.576 38.4 152.576s4.096 0 4.096 0c0 0 36.864-152.576 36.864-152.576s60.416 0 60.416 0c0 0-69.12 223.232-69.12 223.232s0 158.72 0 158.72z"></path>
</symbol>
<symbol id="icon--feed" viewBox="0 0 512 512">
	<title>youtube</title>
	<path class="path1" d="M68.147 375.465c-37.598 0-68.146 30.667-68.146 68.038 0 37.577 30.55 67.901 68.146 67.901 37.733 0 68.247-30.324 68.247-67.901-0.001-37.371-30.512-68.038-68.247-68.038zM0.078 173.965v98.129c63.892 0 123.979 24.986 169.229 70.256 45.192 45.159 70.141 105.518 70.141 169.65h98.561c-0.001-186.41-151.641-338.035-337.931-338.035zM0.194 0v98.178c227.891 0 413.378 185.667 413.378 413.822h98.428c0-282.235-229.627-512-511.806-512z"></path>
</symbol>
<symbol id="icon--question" viewBox="0 0 34 34">
	<title>question</title>
	<g>
		<path d="M17.123,9.2c-1.44,0-2.642,0.503-3.604,1.32S11.994,12,11.832,14h2.937c0.064-1,0.303-1.231,0.716-1.611   s0.926-0.618,1.541-0.618c0.615,0,1.116,0.174,1.504,0.571c0.389,0.396,0.583,0.882,0.583,1.48s-0.187,1.094-0.558,1.499   l-1.772,1.769c-0.518,0.518-0.626,0.934-0.78,1.249C15.849,18.654,16,19.133,16,19.78V21h2v-0.832c0-0.646,0.289-1.148,0.581-1.504   c0.112-0.129,0.333-0.287,0.521-0.473c0.186-0.187,0.448-0.405,0.715-0.656c0.267-0.25,0.5-0.457,0.662-0.619   c0.161-0.161,0.404-0.437,0.712-0.825c0.533-0.647,0.805-1.456,0.805-2.427c0-1.408-0.45-2.503-1.356-3.289   C19.732,9.592,18.563,9.2,17.123,9.2z" />
		<path d="M16.94,22.145c-0.51,0-0.946,0.179-1.311,0.534c-0.364,0.356-0.546,0.78-0.546,1.274   c0,0.493,0.186,0.914,0.558,1.262c0.372,0.348,0.813,0.521,1.322,0.521c0.51,0,0.947-0.178,1.311-0.533   c0.363-0.356,0.546-0.781,0.546-1.274s-0.187-0.914-0.559-1.263C17.891,22.318,17.45,22.145,16.94,22.145z"/>
		<path d="M17,0C7.611,0,0,7.611,0,17s7.611,17,17,17s17-7.611,17-17S26.389,0,17,0z M17,31C9.268,31,3,24.732,3,17   C3,9.268,9.268,3,17,3c7.732,0,14,6.268,14,14C31,24.732,24.732,31,17,31z" />
	</g>
</symbol>
</svg>
